<svg width="386" height="49" viewBox="0 0 386 49" fill="none" xmlns="http://www.w3.org/2000/svg">
<path d="M75.3125 0.3125C79.4167 0.3125 81.4688 2 81.4688 5.375C81.4688 7.45833 80.8542 9.57292 79.625 11.7188C78.3958 13.8646 77.0729 15.9062 75.6562 17.8438C74.2604 19.7604 72.75 21.6667 71.125 23.5625C69.5208 25.4375 67.8229 27.2708 66.0312 29.0625C64.2604 30.8333 62.4688 32.5104 60.6562 34.0938C58.8646 35.6771 57.0833 37.125 55.3125 38.4375C53.5625 39.75 51.8958 40.875 50.3125 41.8125C46.9792 43.8333 44.3958 44.8438 42.5625 44.8438C39.1667 44.8438 36.1667 43.5 33.5625 40.8125C31.3542 38.5208 30.3021 35.3125 30.4062 31.1875C27.3229 34.5208 23.5625 37.5104 19.125 40.1562C14.8125 42.7396 11.4375 44.0312 9 44.0312C6.9375 44.0312 4.91667 42.8542 2.9375 40.5C1.02083 38.25 0.0625 36.2188 0.0625 34.4062C0.0625 32.5729 0.333333 30.7396 0.875 28.9062C1.4375 27.0729 2.17708 25.1979 3.09375 23.2812C4.03125 21.3646 5.10417 19.4479 6.3125 17.5312C7.52083 15.5938 8.77083 13.7188 10.0625 11.9062C11.3542 10.0729 12.6458 8.34375 13.9375 6.71875L17.4688 2.3125C17.9479 1.75 18.5625 1.46875 19.3125 1.46875C20.0833 1.46875 20.8854 1.6875 21.7188 2.125C22.5521 2.5625 23.3125 3.125 24 3.8125C25.6042 5.375 26.3854 6.86458 26.3438 8.28125C26.2396 10.0312 24.3125 13.3958 20.5625 18.375L17.8125 22.125C15.8333 24.9583 14.8229 26.9167 14.7812 28C14.7396 28.625 14.9167 29.1667 15.3125 29.625C16.0208 30.4167 16.625 30.8125 17.125 30.8125C20.1667 30.8125 24.375 28.2292 29.75 23.0625L34.625 18.1875C37.625 12.4375 40.7708 7.69792 44.0625 3.96875C45.5 2.32292 46.4792 1.5 47 1.5C48.9375 1.5 50.6042 2.22917 52 3.6875C53.2083 4.91667 53.7917 5.97917 53.75 6.875C53.7083 7.77083 53.5 8.61458 53.125 9.40625C52.75 10.1979 52.2604 11.0208 51.6562 11.875C51.0729 12.7083 50.4167 13.5625 49.6875 14.4375L47.4375 17.125C45 20.0417 43.5417 22.1875 43.0625 23.5625C42.5417 25.0833 42.2708 26.2708 42.25 27.125C42.2292 27.9792 42.4062 28.6979 42.7812 29.2812C43.1562 29.8438 43.6458 30.3021 44.25 30.6562C45.4583 31.3438 46.9271 31.6875 48.6562 31.6875C49.6979 31.6875 51.25 30.7917 53.3125 29C56.7083 26.0417 59.6667 22.3542 62.1875 17.9375C63.0417 16.4167 63.6667 15.125 64.0625 14.0625C64.4792 13 64.875 12.0417 65.25 11.1875C65.6458 10.3333 66.1042 9.42708 66.625 8.46875C67.1458 7.51042 67.7292 6.55208 68.375 5.59375C69.0208 4.61458 69.7083 3.72917 70.4375 2.9375C72.1042 1.1875 73.7292 0.3125 75.3125 0.3125ZM83.5625 43.1562C81.9583 42.4479 80.6979 41.5625 79.7812 40.5C78.8854 39.4375 78.2917 38.4375 78 37.5C77.5417 36.1042 77.3125 34.9062 77.3125 33.9062C77.3125 32.9062 77.6354 31.7604 78.2812 30.4688C78.9479 29.1771 80.0417 27.8958 81.5625 26.625C84.8958 23.8542 90.0104 21.4792 96.9062 19.5C94.6979 18.5625 93.4375 17.0729 93.125 15.0312C92.8125 12.6979 93.8125 10.625 96.125 8.8125C100.396 5.45833 108.604 3.1875 120.75 2C124.5 1.64583 127.219 1.46875 128.906 1.46875C130.615 1.46875 131.823 1.73958 132.531 2.28125C133.26 2.82292 133.688 3.63542 133.812 4.71875C133.958 5.78125 133.76 6.67708 133.219 7.40625C132.677 8.13542 131.906 8.71875 130.906 9.15625C129.052 9.96875 126.521 10.375 123.312 10.375C120.958 10.375 118.812 10.0208 116.875 9.3125C116.354 9.10417 115.948 8.88542 115.656 8.65625C111.49 9.94792 109.125 11.3958 108.562 13C108.396 13.4167 108.333 13.8021 108.375 14.1562C108.562 15.4271 109.396 16.3646 110.875 16.9688C112.354 17.5729 114.604 17.9583 117.625 18.125C118.625 18.2083 119.365 18.4792 119.844 18.9375C120.344 19.3958 120.625 19.875 120.688 20.375C120.771 20.875 120.74 21.2708 120.594 21.5625C120.448 21.8333 120.229 22.0625 119.938 22.25C119.438 22.5833 118.448 22.8646 116.969 23.0938C115.49 23.3229 113.771 23.6458 111.812 24.0625C109.854 24.4583 107.99 24.8854 106.219 25.3438C104.448 25.8021 102.802 26.2708 101.281 26.75C99.7812 27.2292 98.4792 27.6875 97.375 28.125C95.0417 29.1042 93.9167 29.8958 94 30.5C94.0833 31.0833 94.3229 31.5938 94.7188 32.0312C95.1146 32.4688 95.6458 32.8542 96.3125 33.1875C97.5625 33.7708 99.0833 34.1458 100.875 34.3125C102.688 34.4583 104.438 34.5312 106.125 34.5312C107.833 34.5312 109.656 34.3958 111.594 34.125C113.552 33.8333 115.375 33.4688 117.062 33.0312C118.771 32.5938 120.333 32.1354 121.75 31.6562C123.188 31.1562 124.438 30.6875 125.5 30.25L128.062 29.1875C128.729 28.8958 129.333 28.75 129.875 28.75C131.312 28.75 132.125 29.5104 132.312 31.0312C132.562 33.0938 130.25 35.4167 125.375 38C118.854 41.4792 111.646 43.75 103.75 44.8125C101.917 45.0625 99.7083 45.1875 97.125 45.1875C94.5625 45.1875 92.0625 45.0208 89.625 44.6875C87.1875 44.3542 85.1667 43.8438 83.5625 43.1562ZM142.656 42.9688C141.865 42.2188 141.271 41.375 140.875 40.4375C140.479 39.4792 140.281 38.6562 140.281 37.9688C140.281 37.2604 140.469 36.4271 140.844 35.4688C141.219 34.5104 141.729 33.4062 142.375 32.1562C143.021 30.8854 143.771 29.5104 144.625 28.0312C145.479 26.5312 146.396 25.0208 147.375 23.5L150.312 18.9688C151.333 17.4896 152.333 16.1146 153.312 14.8438C149.146 16.1771 146.052 17.4792 144.031 18.75C142.031 20 140.49 20.9167 139.406 21.5C138.323 22.0833 137.427 22.375 136.719 22.375C135.552 22.375 134.969 21.6458 134.969 20.1875C134.969 18.1042 136.052 15.5417 138.219 12.5C140.469 9.35417 142.792 7.40625 145.188 6.65625C147.604 5.90625 150.292 5.19792 153.25 4.53125C156.229 3.84375 159.323 3.25 162.531 2.75C169.49 1.66667 175.958 1.125 181.938 1.125C188.771 1.125 193.135 1.77083 195.031 3.0625C196.719 4.20833 197.865 5.79167 198.469 7.8125C198.76 8.79167 198.906 9.84375 198.906 10.9688C198.906 12.0938 198.354 13.2708 197.25 14.5C196.167 15.7083 194.719 16.8542 192.906 17.9375C189.49 20.0208 185.01 21.8958 179.469 23.5625C182.615 24.1667 184.792 24.8646 186 25.6562C187.229 26.4271 188.094 27.2083 188.594 28C189.094 28.7708 189.344 29.7604 189.344 30.9688C189.344 32.1562 188.823 33.3854 187.781 34.6562C186.74 35.9271 185.292 37.1146 183.438 38.2188C181.604 39.3229 179.427 40.3229 176.906 41.2188C174.406 42.1146 171.688 42.875 168.75 43.5C162.625 44.8333 156.25 45.5 149.625 45.5C146.75 45.5 144.427 44.6562 142.656 42.9688ZM160.062 19.5C156.938 24.9167 155.375 28.6667 155.375 30.75C155.375 31.7083 155.875 32.6042 156.875 33.4375C157.812 34.2292 158.792 34.625 159.812 34.625C160.833 34.625 161.958 34.5833 163.188 34.5C164.417 34.3958 165.677 34.2604 166.969 34.0938C168.26 33.9271 169.531 33.7292 170.781 33.5C172.031 33.2708 173.146 33.0104 174.125 32.7188C176.292 32.0729 177.375 31.4167 177.375 30.75C177.375 29.5417 175.698 28.5417 172.344 27.75C169.615 27.125 167.01 26.8125 164.531 26.8125C163.573 26.8125 162.885 26.625 162.469 26.25C162.052 25.8542 161.844 25.4062 161.844 24.9062C161.844 24.3854 162.094 23.8542 162.594 23.3125C163.115 22.75 163.812 22.2917 164.688 21.9375C171.771 20.1667 177.688 18.1771 182.438 15.9688C184.771 14.8854 185.938 14.0625 185.938 13.5C185.938 12.6875 185.698 12.0312 185.219 11.5312C184.365 10.6354 183.417 10.1875 182.375 10.1875C181.333 10.1875 180.146 10.2292 178.812 10.3125C177.479 10.3958 176.042 10.5208 174.5 10.6875C171.104 11.0208 167.74 11.5 164.406 12.125C163.927 13.1042 163.292 14.2083 162.5 15.4375L160.062 19.5ZM277.125 0.3125C281.229 0.3125 283.281 2 283.281 5.375C283.281 7.45833 282.667 9.57292 281.438 11.7188C280.208 13.8646 278.885 15.9062 277.469 17.8438C276.073 19.7604 274.562 21.6667 272.938 23.5625C271.333 25.4375 269.635 27.2708 267.844 29.0625C266.073 30.8333 264.281 32.5104 262.469 34.0938C260.677 35.6771 258.896 37.125 257.125 38.4375C255.375 39.75 253.708 40.875 252.125 41.8125C248.792 43.8333 246.208 44.8438 244.375 44.8438C240.979 44.8438 237.979 43.5 235.375 40.8125C233.167 38.5208 232.115 35.3125 232.219 31.1875C229.135 34.5208 225.375 37.5104 220.938 40.1562C216.625 42.7396 213.25 44.0312 210.812 44.0312C208.75 44.0312 206.729 42.8542 204.75 40.5C202.833 38.25 201.875 36.2188 201.875 34.4062C201.875 32.5729 202.146 30.7396 202.688 28.9062C203.25 27.0729 203.99 25.1979 204.906 23.2812C205.844 21.3646 206.917 19.4479 208.125 17.5312C209.333 15.5938 210.583 13.7188 211.875 11.9062C213.167 10.0729 214.458 8.34375 215.75 6.71875L219.281 2.3125C219.76 1.75 220.375 1.46875 221.125 1.46875C221.896 1.46875 222.698 1.6875 223.531 2.125C224.365 2.5625 225.125 3.125 225.812 3.8125C227.417 5.375 228.198 6.86458 228.156 8.28125C228.052 10.0312 226.125 13.3958 222.375 18.375L219.625 22.125C217.646 24.9583 216.635 26.9167 216.594 28C216.552 28.625 216.729 29.1667 217.125 29.625C217.833 30.4167 218.438 30.8125 218.938 30.8125C221.979 30.8125 226.188 28.2292 231.562 23.0625L236.438 18.1875C239.438 12.4375 242.583 7.69792 245.875 3.96875C247.312 2.32292 248.292 1.5 248.812 1.5C250.75 1.5 252.417 2.22917 253.812 3.6875C255.021 4.91667 255.604 5.97917 255.562 6.875C255.521 7.77083 255.312 8.61458 254.938 9.40625C254.562 10.1979 254.073 11.0208 253.469 11.875C252.885 12.7083 252.229 13.5625 251.5 14.4375L249.25 17.125C246.812 20.0417 245.354 22.1875 244.875 23.5625C244.354 25.0833 244.083 26.2708 244.062 27.125C244.042 27.9792 244.219 28.6979 244.594 29.2812C244.969 29.8438 245.458 30.3021 246.062 30.6562C247.271 31.3438 248.74 31.6875 250.469 31.6875C251.51 31.6875 253.062 30.7917 255.125 29C258.521 26.0417 261.479 22.3542 264 17.9375C264.854 16.4167 265.479 15.125 265.875 14.0625C266.292 13 266.688 12.0417 267.062 11.1875C267.458 10.3333 267.917 9.42708 268.438 8.46875C268.958 7.51042 269.542 6.55208 270.188 5.59375C270.833 4.61458 271.521 3.72917 272.25 2.9375C273.917 1.1875 275.542 0.3125 277.125 0.3125ZM313.188 11.6875C313.188 10.2708 312.656 9.5625 311.594 9.5625C310.552 9.5625 309.25 9.75 307.688 10.125C306.146 10.5 304.49 11.0833 302.719 11.875C298.677 13.6875 295.021 16.1875 291.75 19.375C291.312 19.75 290.719 19.9375 289.969 19.9375C289.24 19.9375 288.625 19.7604 288.125 19.4062C287.625 19.0312 287.375 18.5521 287.375 17.9688C287.375 17.3854 287.5 16.7708 287.75 16.125C288 15.4583 288.26 14.6771 288.531 13.7812C288.802 12.8646 289.083 11.9583 289.375 11.0625C290.125 8.91667 290.823 7.5 291.469 6.8125C292.656 5.83333 295.833 4.75 301 3.5625C306.729 2.25 312.333 1.59375 317.812 1.59375C320.104 1.59375 322 2.4375 323.5 4.125C324.792 5.58333 325.438 7.11458 325.438 8.71875C325.438 10.0938 324.417 13.3542 322.375 18.5C319.146 26.7083 315.844 33.125 312.469 37.75C311.531 39.0417 310.604 40.0938 309.688 40.9062C308.354 41.9479 306.604 42.8229 304.438 43.5312C300.771 44.7604 298.385 45.375 297.281 45.375C296.198 45.375 295.125 45.2292 294.062 44.9375C293 44.6667 291.969 44.3125 290.969 43.875C289.99 43.4167 289.073 42.9062 288.219 42.3438C287.365 41.7604 286.615 41.1875 285.969 40.625C284.594 39.3958 283.906 38.3958 283.906 37.625C283.906 36.8958 284.792 35.7188 286.562 34.0938C288.375 32.4271 289.865 31.5938 291.031 31.5938C291.823 31.5938 292.781 31.8958 293.906 32.5L296.312 33.875C296.833 34.1458 297.292 34.2812 297.688 34.2812C298.104 34.2812 298.677 33.9896 299.406 33.4062C300.135 32.8021 300.917 32.0104 301.75 31.0312C302.583 30.0521 303.438 28.9271 304.312 27.6562C305.208 26.3854 306.073 25.0833 306.906 23.75C307.76 22.3958 308.562 21.0521 309.312 19.7188C310.083 18.3854 310.75 17.1667 311.312 16.0625C312.562 13.6667 313.188 12.2083 313.188 11.6875ZM348.25 31.4375C349.062 31.0833 350.021 30.9062 351.125 30.9062C352.229 30.9062 353.146 30.9896 353.875 31.1562C354.604 31.3229 355.427 31.5417 356.344 31.8125C359.135 32.7083 361.104 33.3646 362.25 33.7812L368.094 35.875C369.781 36.4792 370.75 36.7812 371 36.7812C372.312 36.7812 373.75 36.4062 375.312 35.6562C376.875 34.8854 378.271 34.0729 379.5 33.2188C380.75 32.3646 381.604 31.8646 382.062 31.7188C382.521 31.5729 383 31.5 383.5 31.5C384 31.5 384.427 31.6667 384.781 32C385.156 32.3125 385.312 32.7708 385.25 33.375C385.188 33.9583 385.01 34.5833 384.719 35.25C384.448 35.9167 384.094 36.6042 383.656 37.3125C382.719 38.7917 381.802 39.9375 380.906 40.75L378.094 43.1562C374.219 46.4062 370.135 48.0312 365.844 48.0312C364.677 48.0312 362.729 47.5938 360 46.7188L350.344 43.5938C346.198 42.2188 343.521 41.5312 342.312 41.5312C341.125 41.5312 339.958 41.7292 338.812 42.125C337.667 42.5 336.51 42.9167 335.344 43.375C334.177 43.8125 332.979 44.2188 331.75 44.5938C330.542 44.9896 329.479 45.1875 328.562 45.1875C327.667 45.1875 326.99 45.0521 326.531 44.7812C326.094 44.5312 325.698 44.1979 325.344 43.7812C324.448 42.7812 324.042 41.8958 324.125 41.125C324.208 40.3333 324.542 39.5833 325.125 38.875C325.708 38.1667 326.427 37.4479 327.281 36.7188C328.135 35.9896 329.062 35.2708 330.062 34.5625C331.083 33.8333 332.062 33.1667 333 32.5625L337.031 30.0625C337.302 29.8958 337.885 29.5208 338.781 28.9375L355.156 17.75C360.219 14.1667 362.75 12.2917 362.75 12.125C362.75 11.9792 362.354 11.9062 361.562 11.9062C358.604 11.9062 356.083 11.9062 354 11.9062C351.938 11.9062 350.312 11.9167 349.125 11.9375H345.719C341.948 11.9792 339.823 12.0938 339.344 12.2812C338.865 12.4479 338.302 12.7708 337.656 13.25L335.656 14.625C334.031 15.7292 332.677 16.2812 331.594 16.2812C330.24 16.2812 329.375 15.7292 329 14.625C328.646 13.5833 328.812 12.5938 329.5 11.6562C330.188 10.6979 330.917 9.86458 331.688 9.15625C332.479 8.42708 333.354 7.72917 334.312 7.0625C335.292 6.39583 336.26 5.8125 337.219 5.3125C339.344 4.1875 340.896 3.625 341.875 3.625C342.854 3.625 344.01 3.59375 345.344 3.53125C346.698 3.46875 348.219 3.39583 349.906 3.3125C351.615 3.20833 353.448 3.08333 355.406 2.9375L361.281 2.5625C363.26 2.4375 365.188 2.3125 367.062 2.1875C368.938 2.04167 370.656 1.91667 372.219 1.8125L376.281 1.59375C377.406 1.53125 378.146 1.5 378.5 1.5C378.875 1.5 379.302 1.67708 379.781 2.03125C380.281 2.38542 380.76 2.85417 381.219 3.4375C382.427 4.95833 382.958 6.4375 382.812 7.875C382.708 9.0625 379.573 11.7292 373.406 15.875L367.781 19.5625L356.281 26.6875L348.25 31.4375Z" fill="white"/>
</svg>
